<svg width="502" height="462" viewBox="0 0 502 462" fill="none" xmlns="http://www.w3.org/2000/svg">
<path fill-rule="evenodd" clip-rule="evenodd" d="M245.927 4.66347C288.094 -6.62065 333.514 9.80625 371.377 31.5387C410.399 53.936 439.966 88.8431 461.474 128.382C484.131 170.033 510.903 217.637 497.325 263.071C483.823 308.251 426.802 321.477 393.729 355.068C363.533 385.738 351.301 434.377 311.82 451.483C271.052 469.147 224.402 457.947 181.319 447.103C136.822 435.904 92.016 421.024 60.0239 388.109C27.0777 354.211 -3.18837 309.128 1.4775 262.071C6.06814 215.772 52.2749 187.186 83.375 152.604C105.582 127.91 132.71 111.188 157.269 88.8354C188.029 60.8407 205.761 15.4121 245.927 4.66347Z" fill="white" stroke="#2F2C36" stroke-opacity="0.25"/>
</svg>
